<?xml version="1.0" standalone="no"?>
<!DOCTYPE svg PUBLIC "-//W3C//DTD SVG 20010904//EN"
 "http://www.w3.org/TR/2001/REC-SVG-20010904/DTD/svg10.dtd">
<svg version="1.0" xmlns="http://www.w3.org/2000/svg"
 width="1360.000000pt" height="1360.000000pt" viewBox="0 0 1360.000000 1360.000000"
 preserveAspectRatio="xMidYMid meet">
<metadata>
Created by potrace 1.11, written by Peter Selinger 2001-2013
</metadata>
<g transform="translate(0.000000,1360.000000) scale(0.100000,-0.100000)"
fill="#000000" stroke="none">
<path d="M6478 13596 c-1 -2 -53 -6 -115 -10 -61 -4 -119 -8 -130 -10 -10 -2
-53 -7 -96 -11 -43 -3 -88 -8 -100 -10 -21 -4 -33 -5 -142 -21 -27 -3 -59 -8
-70 -10 -11 -2 -47 -9 -80 -14 -92 -15 -174 -32 -326 -66 -156 -35 -305 -77
-519 -146 -747 -243 -1456 -643 -2065 -1164 -211 -181 -574 -546 -676 -679
-13 -16 -26 -32 -29 -35 -71 -64 -431 -564 -535 -741 -10 -19 -40 -70 -65
-114 -26 -44 -57 -98 -70 -120 -13 -22 -60 -114 -105 -205 -71 -143 -98 -201
-170 -365 -157 -361 -337 -967 -380 -1285 -3 -25 -8 -52 -10 -60 -10 -36 -20
-102 -30 -200 -4 -36 -9 -68 -11 -71 -2 -4 -6 -40 -9 -80 -4 -41 -8 -84 -10
-96 -19 -119 -28 -810 -12 -1003 14 -169 27 -301 42 -400 10 -73 17 -118 21
-145 3 -16 7 -42 9 -57 4 -33 33 -180 45 -233 136 -584 263 -952 493 -1425 28
-58 58 -116 68 -130 9 -14 17 -28 17 -33 3 -26 215 -381 330 -552 77 -113 285
-394 319 -430 10 -11 25 -29 33 -41 14 -20 70 -85 170 -198 70 -80 408 -415
484 -481 38 -33 74 -65 80 -70 76 -71 374 -300 533 -408 110 -75 350 -227 359
-227 2 0 21 -11 42 -24 140 -91 545 -286 817 -393 186 -73 587 -201 714 -228
9 -2 57 -13 106 -25 50 -12 97 -23 105 -25 110 -22 286 -55 325 -61 28 -3 59
-8 70 -10 11 -2 58 -9 105 -14 47 -6 96 -13 110 -15 14 -2 59 -6 101 -9 43 -3
101 -8 130 -11 226 -21 641 -21 899 0 36 3 92 8 125 10 33 3 76 7 95 10 19 3
53 7 75 10 119 13 242 31 350 52 17 3 39 7 50 8 11 2 56 11 100 20 44 9 87 18
95 20 8 2 44 11 80 20 36 9 76 19 90 22 42 7 259 70 392 114 741 243 1416 621
2038 1143 204 171 525 492 711 711 19 22 36 42 39 45 14 13 186 236 257 335
411 568 729 1227 918 1905 39 141 51 185 60 230 2 8 14 65 28 125 14 61 28
133 33 160 4 28 8 52 9 55 1 3 5 25 9 50 5 25 10 52 11 61 2 9 6 40 10 69 4
29 9 62 11 74 4 20 6 37 19 166 4 30 8 71 10 90 28 234 28 982 0 1150 -2 14
-7 54 -10 90 -4 36 -8 76 -10 90 -5 30 -14 101 -21 155 -2 22 -7 51 -9 65 -13
64 -29 152 -41 217 -17 96 -90 393 -128 518 -1 6 -8 30 -15 55 -36 129 -139
414 -209 580 -241 575 -554 1085 -970 1583 -113 134 -432 466 -557 578 -139
124 -275 237 -410 339 -44 33 -89 67 -100 76 -182 143 -629 413 -905 546 -410
197 -912 379 -1256 453 -233 50 -310 66 -364 74 -36 6 -74 13 -86 15 -12 2
-45 7 -75 11 -30 3 -61 8 -69 10 -8 2 -40 7 -70 10 -30 3 -71 8 -90 10 -19 3
-64 8 -100 11 -36 3 -87 7 -115 10 -56 5 -771 14 -777 10z"/>
</g>
</svg>
